<?xml version="1.0" standalone="no"?>
<!DOCTYPE svg PUBLIC "-//W3C//DTD SVG 20010904//EN"
 "http://www.w3.org/TR/2001/REC-SVG-20010904/DTD/svg10.dtd">
<svg version="1.0" xmlns="http://www.w3.org/2000/svg"
 width="512.000000pt" height="512.000000pt" viewBox="0 0 512.000000 512.000000"
 preserveAspectRatio="xMidYMid meet">
<metadata>
Created by potrace 1.14, written by Peter Selinger 2001-2017
</metadata>
<g transform="translate(0.000000,512.000000) scale(0.100000,-0.100000)"
fill="#000000" stroke="none">
<path d="M430 4821 c-69 -21 -121 -65 -156 -131 -18 -34 -19 -105 -19 -2135
l0 -2100 22 -40 c25 -47 64 -85 113 -111 34 -18 105 -19 2145 -19 l2110 0 40
22 c47 25 85 64 111 113 18 34 19 105 19 2135 0 2030 -1 2101 -19 2135 -26 49
-64 88 -111 113 l-40 22 -2095 2 c-1152 1 -2106 -2 -2120 -6z m4100 -2266 l0
-1985 -1995 0 -1995 0 0 1985 0 1985 1995 0 1995 0 0 -1985z"/>
<path d="M1243 4185 c-43 -30 -58 -97 -58 -260 1 -164 12 -223 50 -261 l24
-24 436 0 435 0 0 -1373 0 -1374 23 -21 c13 -13 39 -27 58 -33 93 -28 424 -28
520 0 19 6 45 20 57 31 l22 21 0 887 c0 488 3 1106 7 1375 l6 487 426 0 c481
0 456 -4 488 77 15 39 18 76 18 198 0 168 -13 234 -53 265 -24 20 -48 20
-1231 20 -1056 0 -1209 -2 -1228 -15z"/>
</g>
</svg>
